<svg xmlns="http://www.w3.org/2000/svg" xmlns:xlink="http://www.w3.org/1999/xlink" width="600" height="400" viewBox="0 0 2400 1600">
<defs>
  <clipPath id="clip440">
    <rect x="0" y="0" width="2400" height="1600"></rect>
  </clipPath>
</defs>
<path clip-path="url(#clip440)" d="M0 1600 L2400 1600 L2400 0 L0 0  Z" fill="#ffffff" fill-rule="evenodd" fill-opacity="1"></path>
<defs>
  <clipPath id="clip441">
    <rect x="480" y="0" width="1681" height="1600"></rect>
  </clipPath>
</defs>
<path clip-path="url(#clip440)" d="M175.445 1423.18 L2352.76 1423.18 L2352.76 47.2441 L175.445 47.2441  Z" fill="#ffffff" fill-rule="evenodd" fill-opacity="1"></path>
<defs>
  <clipPath id="clip442">
    <rect x="175" y="47" width="2178" height="1377"></rect>
  </clipPath>
</defs>
<polyline clip-path="url(#clip442)" style="stroke:#000000; stroke-linecap:round; stroke-linejoin:round; stroke-width:2; stroke-opacity:0.1; fill:none" points="237.067,1423.18 237.067,47.2441 "></polyline>
<polyline clip-path="url(#clip442)" style="stroke:#000000; stroke-linecap:round; stroke-linejoin:round; stroke-width:2; stroke-opacity:0.1; fill:none" points="647.881,1423.18 647.881,47.2441 "></polyline>
<polyline clip-path="url(#clip442)" style="stroke:#000000; stroke-linecap:round; stroke-linejoin:round; stroke-width:2; stroke-opacity:0.1; fill:none" points="1058.69,1423.18 1058.69,47.2441 "></polyline>
<polyline clip-path="url(#clip442)" style="stroke:#000000; stroke-linecap:round; stroke-linejoin:round; stroke-width:2; stroke-opacity:0.1; fill:none" points="1469.51,1423.18 1469.51,47.2441 "></polyline>
<polyline clip-path="url(#clip442)" style="stroke:#000000; stroke-linecap:round; stroke-linejoin:round; stroke-width:2; stroke-opacity:0.1; fill:none" points="1880.32,1423.18 1880.32,47.2441 "></polyline>
<polyline clip-path="url(#clip442)" style="stroke:#000000; stroke-linecap:round; stroke-linejoin:round; stroke-width:2; stroke-opacity:0.1; fill:none" points="2291.13,1423.18 2291.13,47.2441 "></polyline>
<polyline clip-path="url(#clip440)" style="stroke:#000000; stroke-linecap:round; stroke-linejoin:round; stroke-width:4; stroke-opacity:1; fill:none" points="175.445,1423.18 2352.76,1423.18 "></polyline>
<polyline clip-path="url(#clip440)" style="stroke:#000000; stroke-linecap:round; stroke-linejoin:round; stroke-width:4; stroke-opacity:1; fill:none" points="237.067,1423.18 237.067,1404.28 "></polyline>
<polyline clip-path="url(#clip440)" style="stroke:#000000; stroke-linecap:round; stroke-linejoin:round; stroke-width:4; stroke-opacity:1; fill:none" points="647.881,1423.18 647.881,1404.28 "></polyline>
<polyline clip-path="url(#clip440)" style="stroke:#000000; stroke-linecap:round; stroke-linejoin:round; stroke-width:4; stroke-opacity:1; fill:none" points="1058.69,1423.18 1058.69,1404.28 "></polyline>
<polyline clip-path="url(#clip440)" style="stroke:#000000; stroke-linecap:round; stroke-linejoin:round; stroke-width:4; stroke-opacity:1; fill:none" points="1469.51,1423.18 1469.51,1404.28 "></polyline>
<polyline clip-path="url(#clip440)" style="stroke:#000000; stroke-linecap:round; stroke-linejoin:round; stroke-width:4; stroke-opacity:1; fill:none" points="1880.32,1423.18 1880.32,1404.28 "></polyline>
<polyline clip-path="url(#clip440)" style="stroke:#000000; stroke-linecap:round; stroke-linejoin:round; stroke-width:4; stroke-opacity:1; fill:none" points="2291.13,1423.18 2291.13,1404.28 "></polyline>
<path clip-path="url(#clip440)" d="M237.067 1454.1 Q233.456 1454.1 231.627 1457.66 Q229.822 1461.2 229.822 1468.33 Q229.822 1475.44 231.627 1479.01 Q233.456 1482.55 237.067 1482.55 Q240.701 1482.55 242.507 1479.01 Q244.336 1475.44 244.336 1468.33 Q244.336 1461.2 242.507 1457.66 Q240.701 1454.1 237.067 1454.1 M237.067 1450.39 Q242.877 1450.39 245.933 1455 Q249.012 1459.58 249.012 1468.33 Q249.012 1477.06 245.933 1481.67 Q242.877 1486.25 237.067 1486.25 Q231.257 1486.25 228.178 1481.67 Q225.123 1477.06 225.123 1468.33 Q225.123 1459.58 228.178 1455 Q231.257 1450.39 237.067 1450.39 Z" fill="#000000" fill-rule="nonzero" fill-opacity="1"></path><path clip-path="url(#clip440)" d="M592.406 1481.64 L600.045 1481.64 L600.045 1455.28 L591.735 1456.95 L591.735 1452.69 L599.999 1451.02 L604.675 1451.02 L604.675 1481.64 L612.314 1481.64 L612.314 1485.58 L592.406 1485.58 L592.406 1481.64 Z" fill="#000000" fill-rule="nonzero" fill-opacity="1"></path><path clip-path="url(#clip440)" d="M631.758 1454.1 Q628.147 1454.1 626.318 1457.66 Q624.513 1461.2 624.513 1468.33 Q624.513 1475.44 626.318 1479.01 Q628.147 1482.55 631.758 1482.55 Q635.392 1482.55 637.198 1479.01 Q639.026 1475.44 639.026 1468.33 Q639.026 1461.2 637.198 1457.66 Q635.392 1454.1 631.758 1454.1 M631.758 1450.39 Q637.568 1450.39 640.624 1455 Q643.702 1459.58 643.702 1468.33 Q643.702 1477.06 640.624 1481.67 Q637.568 1486.25 631.758 1486.25 Q625.948 1486.25 622.869 1481.67 Q619.814 1477.06 619.814 1468.33 Q619.814 1459.58 622.869 1455 Q625.948 1450.39 631.758 1450.39 Z" fill="#000000" fill-rule="nonzero" fill-opacity="1"></path><path clip-path="url(#clip440)" d="M661.92 1454.1 Q658.309 1454.1 656.48 1457.66 Q654.674 1461.2 654.674 1468.33 Q654.674 1475.44 656.48 1479.01 Q658.309 1482.55 661.92 1482.55 Q665.554 1482.55 667.36 1479.01 Q669.188 1475.44 669.188 1468.33 Q669.188 1461.2 667.36 1457.66 Q665.554 1454.1 661.92 1454.1 M661.92 1450.39 Q667.73 1450.39 670.786 1455 Q673.864 1459.58 673.864 1468.33 Q673.864 1477.06 670.786 1481.67 Q667.73 1486.25 661.92 1486.25 Q656.11 1486.25 653.031 1481.67 Q649.975 1477.06 649.975 1468.33 Q649.975 1459.58 653.031 1455 Q656.11 1450.39 661.92 1450.39 Z" fill="#000000" fill-rule="nonzero" fill-opacity="1"></path><path clip-path="url(#clip440)" d="M692.082 1454.1 Q688.471 1454.1 686.642 1457.66 Q684.836 1461.2 684.836 1468.33 Q684.836 1475.44 686.642 1479.01 Q688.471 1482.55 692.082 1482.55 Q695.716 1482.55 697.521 1479.01 Q699.35 1475.44 699.35 1468.33 Q699.35 1461.2 697.521 1457.66 Q695.716 1454.1 692.082 1454.1 M692.082 1450.39 Q697.892 1450.39 700.947 1455 Q704.026 1459.58 704.026 1468.33 Q704.026 1477.06 700.947 1481.67 Q697.892 1486.25 692.082 1486.25 Q686.272 1486.25 683.193 1481.67 Q680.137 1477.06 680.137 1468.33 Q680.137 1459.58 683.193 1455 Q686.272 1450.39 692.082 1450.39 Z" fill="#000000" fill-rule="nonzero" fill-opacity="1"></path><path clip-path="url(#clip440)" d="M1007.31 1481.64 L1023.62 1481.64 L1023.62 1485.58 L1001.68 1485.58 L1001.68 1481.64 Q1004.34 1478.89 1008.93 1474.26 Q1013.53 1469.61 1014.71 1468.27 Q1016.96 1465.74 1017.84 1464.01 Q1018.74 1462.25 1018.74 1460.56 Q1018.74 1457.8 1016.8 1456.07 Q1014.87 1454.33 1011.77 1454.33 Q1009.57 1454.33 1007.12 1455.09 Q1004.69 1455.86 1001.91 1457.41 L1001.91 1452.69 Q1004.74 1451.55 1007.19 1450.97 Q1009.64 1450.39 1011.68 1450.39 Q1017.05 1450.39 1020.25 1453.08 Q1023.44 1455.77 1023.44 1460.26 Q1023.44 1462.39 1022.63 1464.31 Q1021.84 1466.2 1019.74 1468.8 Q1019.16 1469.47 1016.06 1472.69 Q1012.95 1475.88 1007.31 1481.64 Z" fill="#000000" fill-rule="nonzero" fill-opacity="1"></path><path clip-path="url(#clip440)" d="M1043.44 1454.1 Q1039.83 1454.1 1038 1457.66 Q1036.19 1461.2 1036.19 1468.33 Q1036.19 1475.44 1038 1479.01 Q1039.83 1482.55 1043.44 1482.55 Q1047.07 1482.55 1048.88 1479.01 Q1050.71 1475.44 1050.71 1468.33 Q1050.71 1461.2 1048.88 1457.66 Q1047.07 1454.1 1043.44 1454.1 M1043.44 1450.39 Q1049.25 1450.39 1052.31 1455 Q1055.38 1459.58 1055.38 1468.33 Q1055.38 1477.06 1052.31 1481.67 Q1049.25 1486.25 1043.44 1486.25 Q1037.63 1486.25 1034.55 1481.67 Q1031.49 1477.06 1031.49 1468.33 Q1031.49 1459.58 1034.55 1455 Q1037.63 1450.39 1043.44 1450.39 Z" fill="#000000" fill-rule="nonzero" fill-opacity="1"></path><path clip-path="url(#clip440)" d="M1073.6 1454.1 Q1069.99 1454.1 1068.16 1457.66 Q1066.36 1461.2 1066.36 1468.33 Q1066.36 1475.44 1068.16 1479.01 Q1069.99 1482.55 1073.6 1482.55 Q1077.24 1482.55 1079.04 1479.01 Q1080.87 1475.44 1080.87 1468.33 Q1080.87 1461.2 1079.04 1457.66 Q1077.24 1454.1 1073.6 1454.1 M1073.6 1450.39 Q1079.41 1450.39 1082.47 1455 Q1085.55 1459.58 1085.55 1468.33 Q1085.55 1477.06 1082.47 1481.67 Q1079.41 1486.25 1073.6 1486.25 Q1067.79 1486.25 1064.71 1481.67 Q1061.66 1477.06 1061.66 1468.33 Q1061.66 1459.58 1064.71 1455 Q1067.79 1450.39 1073.6 1450.39 Z" fill="#000000" fill-rule="nonzero" fill-opacity="1"></path><path clip-path="url(#clip440)" d="M1103.76 1454.1 Q1100.15 1454.1 1098.32 1457.66 Q1096.52 1461.2 1096.52 1468.33 Q1096.52 1475.44 1098.32 1479.01 Q1100.15 1482.55 1103.76 1482.55 Q1107.4 1482.55 1109.2 1479.01 Q1111.03 1475.44 1111.03 1468.33 Q1111.03 1461.2 1109.2 1457.66 Q1107.4 1454.1 1103.76 1454.1 M1103.76 1450.39 Q1109.57 1450.39 1112.63 1455 Q1115.71 1459.58 1115.71 1468.33 Q1115.71 1477.06 1112.63 1481.67 Q1109.57 1486.25 1103.76 1486.25 Q1097.95 1486.25 1094.87 1481.67 Q1091.82 1477.06 1091.82 1468.33 Q1091.82 1459.58 1094.87 1455 Q1097.95 1450.39 1103.76 1450.39 Z" fill="#000000" fill-rule="nonzero" fill-opacity="1"></path><path clip-path="url(#clip440)" d="M1428.19 1466.95 Q1431.54 1467.66 1433.42 1469.93 Q1435.32 1472.2 1435.32 1475.53 Q1435.32 1480.65 1431.8 1483.45 Q1428.28 1486.25 1421.8 1486.25 Q1419.62 1486.25 1417.31 1485.81 Q1415.02 1485.39 1412.56 1484.54 L1412.56 1480.02 Q1414.51 1481.16 1416.82 1481.74 Q1419.14 1482.32 1421.66 1482.32 Q1426.06 1482.32 1428.35 1480.58 Q1430.66 1478.84 1430.66 1475.53 Q1430.66 1472.48 1428.51 1470.77 Q1426.38 1469.03 1422.56 1469.03 L1418.54 1469.03 L1418.54 1465.19 L1422.75 1465.19 Q1426.2 1465.19 1428.03 1463.82 Q1429.85 1462.43 1429.85 1459.84 Q1429.85 1457.18 1427.96 1455.77 Q1426.08 1454.33 1422.56 1454.33 Q1420.64 1454.33 1418.44 1454.75 Q1416.24 1455.16 1413.6 1456.04 L1413.6 1451.88 Q1416.27 1451.14 1418.58 1450.77 Q1420.92 1450.39 1422.98 1450.39 Q1428.3 1450.39 1431.41 1452.83 Q1434.51 1455.23 1434.51 1459.35 Q1434.51 1462.22 1432.86 1464.21 Q1431.22 1466.18 1428.19 1466.95 Z" fill="#000000" fill-rule="nonzero" fill-opacity="1"></path><path clip-path="url(#clip440)" d="M1454.18 1454.1 Q1450.57 1454.1 1448.74 1457.66 Q1446.94 1461.2 1446.94 1468.33 Q1446.94 1475.44 1448.74 1479.01 Q1450.57 1482.55 1454.18 1482.55 Q1457.82 1482.55 1459.62 1479.01 Q1461.45 1475.44 1461.45 1468.33 Q1461.45 1461.2 1459.62 1457.66 Q1457.82 1454.1 1454.18 1454.1 M1454.18 1450.39 Q1459.99 1450.39 1463.05 1455 Q1466.13 1459.58 1466.13 1468.33 Q1466.13 1477.06 1463.05 1481.67 Q1459.99 1486.25 1454.18 1486.25 Q1448.37 1486.25 1445.29 1481.67 Q1442.24 1477.06 1442.24 1468.33 Q1442.24 1459.58 1445.29 1455 Q1448.37 1450.39 1454.18 1450.39 Z" fill="#000000" fill-rule="nonzero" fill-opacity="1"></path><path clip-path="url(#clip440)" d="M1484.35 1454.1 Q1480.73 1454.1 1478.91 1457.66 Q1477.1 1461.2 1477.1 1468.33 Q1477.1 1475.44 1478.91 1479.01 Q1480.73 1482.55 1484.35 1482.55 Q1487.98 1482.55 1489.78 1479.01 Q1491.61 1475.44 1491.61 1468.33 Q1491.61 1461.2 1489.78 1457.66 Q1487.98 1454.1 1484.35 1454.1 M1484.35 1450.39 Q1490.16 1450.39 1493.21 1455 Q1496.29 1459.58 1496.29 1468.33 Q1496.29 1477.06 1493.21 1481.67 Q1490.16 1486.25 1484.35 1486.25 Q1478.53 1486.25 1475.46 1481.67 Q1472.4 1477.06 1472.4 1468.33 Q1472.4 1459.58 1475.46 1455 Q1478.53 1450.39 1484.35 1450.39 Z" fill="#000000" fill-rule="nonzero" fill-opacity="1"></path><path clip-path="url(#clip440)" d="M1514.51 1454.1 Q1510.9 1454.1 1509.07 1457.66 Q1507.26 1461.2 1507.26 1468.33 Q1507.26 1475.44 1509.07 1479.01 Q1510.9 1482.55 1514.51 1482.55 Q1518.14 1482.55 1519.95 1479.01 Q1521.78 1475.44 1521.78 1468.33 Q1521.78 1461.2 1519.95 1457.66 Q1518.14 1454.1 1514.51 1454.1 M1514.51 1450.39 Q1520.32 1450.39 1523.37 1455 Q1526.45 1459.58 1526.45 1468.33 Q1526.45 1477.06 1523.37 1481.67 Q1520.32 1486.25 1514.51 1486.25 Q1508.7 1486.25 1505.62 1481.67 Q1502.56 1477.06 1502.56 1468.33 Q1502.56 1459.58 1505.62 1455 Q1508.7 1450.39 1514.51 1450.39 Z" fill="#000000" fill-rule="nonzero" fill-opacity="1"></path><path clip-path="url(#clip440)" d="M1838.33 1455.09 L1826.52 1473.54 L1838.33 1473.54 L1838.33 1455.09 M1837.1 1451.02 L1842.98 1451.02 L1842.98 1473.54 L1847.91 1473.54 L1847.91 1477.43 L1842.98 1477.43 L1842.98 1485.58 L1838.33 1485.58 L1838.33 1477.43 L1822.73 1477.43 L1822.73 1472.92 L1837.1 1451.02 Z" fill="#000000" fill-rule="nonzero" fill-opacity="1"></path><path clip-path="url(#clip440)" d="M1865.64 1454.1 Q1862.03 1454.1 1860.2 1457.66 Q1858.4 1461.2 1858.4 1468.33 Q1858.4 1475.44 1860.2 1479.01 Q1862.03 1482.55 1865.64 1482.55 Q1869.28 1482.55 1871.08 1479.01 Q1872.91 1475.44 1872.91 1468.33 Q1872.91 1461.2 1871.08 1457.66 Q1869.28 1454.1 1865.64 1454.1 M1865.64 1450.39 Q1871.45 1450.39 1874.51 1455 Q1877.59 1459.58 1877.59 1468.33 Q1877.59 1477.06 1874.51 1481.67 Q1871.45 1486.25 1865.64 1486.25 Q1859.83 1486.25 1856.76 1481.67 Q1853.7 1477.06 1853.7 1468.33 Q1853.7 1459.58 1856.76 1455 Q1859.83 1450.39 1865.64 1450.39 Z" fill="#000000" fill-rule="nonzero" fill-opacity="1"></path><path clip-path="url(#clip440)" d="M1895.81 1454.1 Q1892.2 1454.1 1890.37 1457.66 Q1888.56 1461.2 1888.56 1468.33 Q1888.56 1475.44 1890.37 1479.01 Q1892.2 1482.55 1895.81 1482.55 Q1899.44 1482.55 1901.25 1479.01 Q1903.08 1475.44 1903.08 1468.33 Q1903.08 1461.2 1901.25 1457.66 Q1899.44 1454.1 1895.81 1454.1 M1895.81 1450.39 Q1901.62 1450.39 1904.67 1455 Q1907.75 1459.58 1907.75 1468.33 Q1907.75 1477.06 1904.67 1481.67 Q1901.62 1486.25 1895.81 1486.25 Q1890 1486.25 1886.92 1481.67 Q1883.86 1477.06 1883.86 1468.33 Q1883.86 1459.58 1886.92 1455 Q1890 1450.39 1895.81 1450.39 Z" fill="#000000" fill-rule="nonzero" fill-opacity="1"></path><path clip-path="url(#clip440)" d="M1925.97 1454.1 Q1922.36 1454.1 1920.53 1457.66 Q1918.72 1461.2 1918.72 1468.33 Q1918.72 1475.44 1920.53 1479.01 Q1922.36 1482.55 1925.97 1482.55 Q1929.6 1482.55 1931.41 1479.01 Q1933.24 1475.44 1933.24 1468.33 Q1933.24 1461.2 1931.41 1457.66 Q1929.6 1454.1 1925.97 1454.1 M1925.97 1450.39 Q1931.78 1450.39 1934.83 1455 Q1937.91 1459.58 1937.91 1468.33 Q1937.91 1477.06 1934.83 1481.67 Q1931.78 1486.25 1925.97 1486.25 Q1920.16 1486.25 1917.08 1481.67 Q1914.02 1477.06 1914.02 1468.33 Q1914.02 1459.58 1917.08 1455 Q1920.16 1450.39 1925.97 1450.39 Z" fill="#000000" fill-rule="nonzero" fill-opacity="1"></path><path clip-path="url(#clip440)" d="M2235.67 1451.02 L2254.03 1451.02 L2254.03 1454.96 L2239.95 1454.96 L2239.95 1463.43 Q2240.97 1463.08 2241.99 1462.92 Q2243.01 1462.73 2244.03 1462.73 Q2249.81 1462.73 2253.19 1465.9 Q2256.57 1469.08 2256.57 1474.49 Q2256.57 1480.07 2253.1 1483.17 Q2249.63 1486.25 2243.31 1486.25 Q2241.13 1486.25 2238.87 1485.88 Q2236.62 1485.51 2234.21 1484.77 L2234.21 1480.07 Q2236.3 1481.2 2238.52 1481.76 Q2240.74 1482.32 2243.22 1482.32 Q2247.22 1482.32 2249.56 1480.21 Q2251.9 1478.1 2251.9 1474.49 Q2251.9 1470.88 2249.56 1468.77 Q2247.22 1466.67 2243.22 1466.67 Q2241.34 1466.67 2239.47 1467.08 Q2237.62 1467.5 2235.67 1468.38 L2235.67 1451.02 Z" fill="#000000" fill-rule="nonzero" fill-opacity="1"></path><path clip-path="url(#clip440)" d="M2275.79 1454.1 Q2272.18 1454.1 2270.35 1457.66 Q2268.54 1461.2 2268.54 1468.33 Q2268.54 1475.44 2270.35 1479.01 Q2272.18 1482.55 2275.79 1482.55 Q2279.42 1482.55 2281.23 1479.01 Q2283.06 1475.44 2283.06 1468.33 Q2283.06 1461.2 2281.23 1457.66 Q2279.42 1454.1 2275.79 1454.1 M2275.79 1450.39 Q2281.6 1450.39 2284.65 1455 Q2287.73 1459.58 2287.73 1468.33 Q2287.73 1477.06 2284.65 1481.67 Q2281.6 1486.25 2275.79 1486.25 Q2269.98 1486.25 2266.9 1481.67 Q2263.84 1477.06 2263.84 1468.33 Q2263.84 1459.58 2266.9 1455 Q2269.98 1450.39 2275.79 1450.39 Z" fill="#000000" fill-rule="nonzero" fill-opacity="1"></path><path clip-path="url(#clip440)" d="M2305.95 1454.1 Q2302.34 1454.1 2300.51 1457.66 Q2298.7 1461.2 2298.7 1468.33 Q2298.7 1475.44 2300.51 1479.01 Q2302.34 1482.55 2305.95 1482.55 Q2309.58 1482.55 2311.39 1479.01 Q2313.22 1475.44 2313.22 1468.33 Q2313.22 1461.2 2311.39 1457.66 Q2309.58 1454.1 2305.95 1454.1 M2305.95 1450.39 Q2311.76 1450.39 2314.81 1455 Q2317.89 1459.58 2317.89 1468.33 Q2317.89 1477.06 2314.81 1481.67 Q2311.76 1486.25 2305.95 1486.25 Q2300.14 1486.25 2297.06 1481.67 Q2294 1477.06 2294 1468.33 Q2294 1459.58 2297.06 1455 Q2300.14 1450.39 2305.95 1450.39 Z" fill="#000000" fill-rule="nonzero" fill-opacity="1"></path><path clip-path="url(#clip440)" d="M2336.11 1454.1 Q2332.5 1454.1 2330.67 1457.66 Q2328.87 1461.2 2328.87 1468.33 Q2328.87 1475.44 2330.67 1479.01 Q2332.5 1482.55 2336.11 1482.55 Q2339.74 1482.55 2341.55 1479.01 Q2343.38 1475.44 2343.38 1468.33 Q2343.38 1461.2 2341.55 1457.66 Q2339.74 1454.1 2336.11 1454.1 M2336.11 1450.39 Q2341.92 1450.39 2344.98 1455 Q2348.05 1459.58 2348.05 1468.33 Q2348.05 1477.06 2344.98 1481.67 Q2341.92 1486.25 2336.11 1486.25 Q2330.3 1486.25 2327.22 1481.67 Q2324.17 1477.06 2324.17 1468.33 Q2324.17 1459.58 2327.22 1455 Q2330.3 1450.39 2336.11 1450.39 Z" fill="#000000" fill-rule="nonzero" fill-opacity="1"></path><path clip-path="url(#clip440)" d="M1066.48 1525.81 L1066.48 1562.76 L1074.24 1562.76 Q1084.08 1562.76 1088.63 1558.3 Q1093.21 1553.85 1093.21 1544.24 Q1093.21 1534.69 1088.63 1530.26 Q1084.08 1525.81 1074.24 1525.81 L1066.48 1525.81 M1060.05 1520.52 L1073.26 1520.52 Q1087.07 1520.52 1093.53 1526.28 Q1099.99 1532.01 1099.99 1544.24 Q1099.99 1556.52 1093.5 1562.28 Q1087.01 1568.04 1073.26 1568.04 L1060.05 1568.04 L1060.05 1520.52 Z" fill="#000000" fill-rule="nonzero" fill-opacity="1"></path><path clip-path="url(#clip440)" d="M1109.99 1532.4 L1115.84 1532.4 L1115.84 1568.04 L1109.99 1568.04 L1109.99 1532.4 M1109.99 1518.52 L1115.84 1518.52 L1115.84 1525.93 L1109.99 1525.93 L1109.99 1518.52 Z" fill="#000000" fill-rule="nonzero" fill-opacity="1"></path><path clip-path="url(#clip440)" d="M1150.82 1533.45 L1150.82 1538.98 Q1148.34 1537.71 1145.67 1537.07 Q1142.99 1536.44 1140.13 1536.44 Q1135.77 1536.44 1133.57 1537.77 Q1131.41 1539.11 1131.41 1541.79 Q1131.41 1543.82 1132.97 1545 Q1134.53 1546.15 1139.24 1547.2 L1141.24 1547.64 Q1147.48 1548.98 1150.09 1551.43 Q1152.73 1553.85 1152.73 1558.21 Q1152.73 1563.17 1148.79 1566.07 Q1144.87 1568.97 1138 1568.97 Q1135.13 1568.97 1132.01 1568.39 Q1128.92 1567.85 1125.49 1566.74 L1125.49 1560.69 Q1128.73 1562.38 1131.88 1563.24 Q1135.04 1564.07 1138.12 1564.07 Q1142.26 1564.07 1144.49 1562.66 Q1146.72 1561.23 1146.72 1558.65 Q1146.72 1556.27 1145.09 1554.99 Q1143.5 1553.72 1138.06 1552.54 L1136.02 1552.07 Q1130.58 1550.92 1128.16 1548.56 Q1125.74 1546.18 1125.74 1542.04 Q1125.74 1537.01 1129.31 1534.27 Q1132.87 1531.54 1139.43 1531.54 Q1142.67 1531.54 1145.54 1532.01 Q1148.4 1532.49 1150.82 1533.45 Z" fill="#000000" fill-rule="nonzero" fill-opacity="1"></path><path clip-path="url(#clip440)" d="M1167.85 1522.27 L1167.85 1532.4 L1179.91 1532.4 L1179.91 1536.95 L1167.85 1536.95 L1167.85 1556.3 Q1167.85 1560.66 1169.03 1561.9 Q1170.24 1563.14 1173.9 1563.14 L1179.91 1563.14 L1179.91 1568.04 L1173.9 1568.04 Q1167.12 1568.04 1164.54 1565.53 Q1161.96 1562.98 1161.96 1556.3 L1161.96 1536.95 L1157.67 1536.95 L1157.67 1532.4 L1161.96 1532.4 L1161.96 1522.27 L1167.85 1522.27 Z" fill="#000000" fill-rule="nonzero" fill-opacity="1"></path><path clip-path="url(#clip440)" d="M1203.82 1550.12 Q1196.72 1550.12 1193.98 1551.75 Q1191.25 1553.37 1191.25 1557.29 Q1191.25 1560.4 1193.28 1562.25 Q1195.35 1564.07 1198.88 1564.07 Q1203.75 1564.07 1206.68 1560.63 Q1209.64 1557.16 1209.64 1551.43 L1209.64 1550.12 L1203.82 1550.12 M1215.5 1547.71 L1215.5 1568.04 L1209.64 1568.04 L1209.64 1562.63 Q1207.64 1565.88 1204.64 1567.44 Q1201.65 1568.97 1197.32 1568.97 Q1191.85 1568.97 1188.6 1565.91 Q1185.39 1562.82 1185.39 1557.67 Q1185.39 1551.65 1189.4 1548.6 Q1193.44 1545.54 1201.43 1545.54 L1209.64 1545.54 L1209.64 1544.97 Q1209.64 1540.93 1206.97 1538.73 Q1204.33 1536.5 1199.52 1536.5 Q1196.46 1536.5 1193.57 1537.23 Q1190.67 1537.97 1188 1539.43 L1188 1534.02 Q1191.21 1532.78 1194.24 1532.17 Q1197.26 1531.54 1200.13 1531.54 Q1207.86 1531.54 1211.68 1535.55 Q1215.5 1539.56 1215.5 1547.71 Z" fill="#000000" fill-rule="nonzero" fill-opacity="1"></path><path clip-path="url(#clip440)" d="M1257.19 1546.53 L1257.19 1568.04 L1251.34 1568.04 L1251.34 1546.72 Q1251.34 1541.66 1249.36 1539.14 Q1247.39 1536.63 1243.44 1536.63 Q1238.7 1536.63 1235.96 1539.65 Q1233.23 1542.68 1233.23 1547.9 L1233.23 1568.04 L1227.34 1568.04 L1227.34 1532.4 L1233.23 1532.4 L1233.23 1537.93 Q1235.33 1534.72 1238.16 1533.13 Q1241.02 1531.54 1244.75 1531.54 Q1250.89 1531.54 1254.04 1535.36 Q1257.19 1539.14 1257.19 1546.53 Z" fill="#000000" fill-rule="nonzero" fill-opacity="1"></path><path clip-path="url(#clip440)" d="M1294.53 1533.76 L1294.53 1539.24 Q1292.05 1537.87 1289.53 1537.2 Q1287.05 1536.5 1284.5 1536.5 Q1278.81 1536.5 1275.65 1540.13 Q1272.5 1543.73 1272.5 1550.25 Q1272.5 1556.78 1275.65 1560.4 Q1278.81 1564 1284.5 1564 Q1287.05 1564 1289.53 1563.33 Q1292.05 1562.63 1294.53 1561.26 L1294.53 1566.68 Q1292.08 1567.82 1289.44 1568.39 Q1286.83 1568.97 1283.87 1568.97 Q1275.81 1568.97 1271.07 1563.91 Q1266.33 1558.85 1266.33 1550.25 Q1266.33 1541.53 1271.1 1536.53 Q1275.91 1531.54 1284.25 1531.54 Q1286.95 1531.54 1289.53 1532.11 Q1292.11 1532.65 1294.53 1533.76 Z" fill="#000000" fill-rule="nonzero" fill-opacity="1"></path><path clip-path="url(#clip440)" d="M1335.21 1548.76 L1335.21 1551.62 L1308.28 1551.62 Q1308.66 1557.67 1311.91 1560.85 Q1315.19 1564 1321.01 1564 Q1324.38 1564 1327.53 1563.17 Q1330.72 1562.35 1333.84 1560.69 L1333.84 1566.23 Q1330.69 1567.57 1327.38 1568.27 Q1324.07 1568.97 1320.66 1568.97 Q1312.13 1568.97 1307.13 1564 Q1302.17 1559.04 1302.17 1550.57 Q1302.17 1541.82 1306.88 1536.69 Q1311.62 1531.54 1319.64 1531.54 Q1326.83 1531.54 1331 1536.18 Q1335.21 1540.8 1335.21 1548.76 M1329.35 1547.04 Q1329.29 1542.23 1326.64 1539.37 Q1324.03 1536.5 1319.71 1536.5 Q1314.8 1536.5 1311.84 1539.27 Q1308.92 1542.04 1308.47 1547.07 L1329.35 1547.04 Z" fill="#000000" fill-rule="nonzero" fill-opacity="1"></path><path clip-path="url(#clip440)" d="M1379.61 1518.58 Q1375.34 1525.9 1373.27 1533.06 Q1371.2 1540.23 1371.2 1547.58 Q1371.2 1554.93 1373.27 1562.16 Q1375.37 1569.35 1379.61 1576.64 L1374.51 1576.64 Q1369.74 1569.16 1367.35 1561.93 Q1365 1554.71 1365 1547.58 Q1365 1540.48 1367.35 1533.29 Q1369.71 1526.09 1374.51 1518.58 L1379.61 1518.58 Z" fill="#000000" fill-rule="nonzero" fill-opacity="1"></path><path clip-path="url(#clip440)" d="M1418.72 1539.24 Q1420.92 1535.29 1423.98 1533.41 Q1427.03 1531.54 1431.17 1531.54 Q1436.74 1531.54 1439.76 1535.45 Q1442.79 1539.33 1442.79 1546.53 L1442.79 1568.04 L1436.9 1568.04 L1436.9 1546.72 Q1436.9 1541.59 1435.08 1539.11 Q1433.27 1536.63 1429.55 1536.63 Q1424.99 1536.63 1422.35 1539.65 Q1419.71 1542.68 1419.71 1547.9 L1419.71 1568.04 L1413.82 1568.04 L1413.82 1546.72 Q1413.82 1541.56 1412.01 1539.11 Q1410.19 1536.63 1406.41 1536.63 Q1401.92 1536.63 1399.28 1539.68 Q1396.63 1542.71 1396.63 1547.9 L1396.63 1568.04 L1390.75 1568.04 L1390.75 1532.4 L1396.63 1532.4 L1396.63 1537.93 Q1398.64 1534.66 1401.44 1533.1 Q1404.24 1531.54 1408.09 1531.54 Q1411.98 1531.54 1414.68 1533.51 Q1417.42 1535.48 1418.72 1539.24 Z" fill="#000000" fill-rule="nonzero" fill-opacity="1"></path><path clip-path="url(#clip440)" d="M1453.54 1518.58 L1458.64 1518.58 Q1463.41 1526.09 1465.77 1533.29 Q1468.15 1540.48 1468.15 1547.58 Q1468.15 1554.71 1465.77 1561.93 Q1463.41 1569.16 1458.64 1576.64 L1453.54 1576.64 Q1457.78 1569.35 1459.85 1562.16 Q1461.95 1554.93 1461.95 1547.58 Q1461.95 1540.23 1459.85 1533.06 Q1457.78 1525.9 1453.54 1518.58 Z" fill="#000000" fill-rule="nonzero" fill-opacity="1"></path><polyline clip-path="url(#clip442)" style="stroke:#000000; stroke-linecap:round; stroke-linejoin:round; stroke-width:2; stroke-opacity:0.1; fill:none" points="175.445,1212.08 2352.76,1212.08 "></polyline>
<polyline clip-path="url(#clip442)" style="stroke:#000000; stroke-linecap:round; stroke-linejoin:round; stroke-width:2; stroke-opacity:0.1; fill:none" points="175.445,867.757 2352.76,867.757 "></polyline>
<polyline clip-path="url(#clip442)" style="stroke:#000000; stroke-linecap:round; stroke-linejoin:round; stroke-width:2; stroke-opacity:0.1; fill:none" points="175.445,523.436 2352.76,523.436 "></polyline>
<polyline clip-path="url(#clip442)" style="stroke:#000000; stroke-linecap:round; stroke-linejoin:round; stroke-width:2; stroke-opacity:0.1; fill:none" points="175.445,179.115 2352.76,179.115 "></polyline>
<polyline clip-path="url(#clip440)" style="stroke:#000000; stroke-linecap:round; stroke-linejoin:round; stroke-width:4; stroke-opacity:1; fill:none" points="175.445,1423.18 175.445,47.2441 "></polyline>
<polyline clip-path="url(#clip440)" style="stroke:#000000; stroke-linecap:round; stroke-linejoin:round; stroke-width:4; stroke-opacity:1; fill:none" points="175.445,1212.08 194.343,1212.08 "></polyline>
<polyline clip-path="url(#clip440)" style="stroke:#000000; stroke-linecap:round; stroke-linejoin:round; stroke-width:4; stroke-opacity:1; fill:none" points="175.445,867.757 194.343,867.757 "></polyline>
<polyline clip-path="url(#clip440)" style="stroke:#000000; stroke-linecap:round; stroke-linejoin:round; stroke-width:4; stroke-opacity:1; fill:none" points="175.445,523.436 194.343,523.436 "></polyline>
<polyline clip-path="url(#clip440)" style="stroke:#000000; stroke-linecap:round; stroke-linejoin:round; stroke-width:4; stroke-opacity:1; fill:none" points="175.445,179.115 194.343,179.115 "></polyline>
<path clip-path="url(#clip440)" d="M123.126 1225.42 L139.445 1225.42 L139.445 1229.36 L117.501 1229.36 L117.501 1225.42 Q120.163 1222.67 124.746 1218.04 Q129.353 1213.39 130.533 1212.04 Q132.779 1209.52 133.658 1207.78 Q134.561 1206.02 134.561 1204.33 Q134.561 1201.58 132.617 1199.84 Q130.695 1198.11 127.593 1198.11 Q125.394 1198.11 122.941 1198.87 Q120.51 1199.64 117.732 1201.19 L117.732 1196.46 Q120.556 1195.33 123.01 1194.75 Q125.464 1194.17 127.501 1194.17 Q132.871 1194.17 136.066 1196.86 Q139.26 1199.54 139.26 1204.03 Q139.26 1206.16 138.45 1208.08 Q137.663 1209.98 135.556 1212.58 Q134.978 1213.25 131.876 1216.46 Q128.774 1219.66 123.126 1225.42 Z" fill="#000000" fill-rule="nonzero" fill-opacity="1"></path><path clip-path="url(#clip440)" d="M129.862 854.551 L118.056 873 L129.862 873 L129.862 854.551 M128.635 850.477 L134.515 850.477 L134.515 873 L139.445 873 L139.445 876.889 L134.515 876.889 L134.515 885.037 L129.862 885.037 L129.862 876.889 L114.26 876.889 L114.26 872.375 L128.635 850.477 Z" fill="#000000" fill-rule="nonzero" fill-opacity="1"></path><path clip-path="url(#clip440)" d="M127.917 521.573 Q124.769 521.573 122.918 523.726 Q121.089 525.878 121.089 529.628 Q121.089 533.355 122.918 535.531 Q124.769 537.684 127.917 537.684 Q131.066 537.684 132.894 535.531 Q134.746 533.355 134.746 529.628 Q134.746 525.878 132.894 523.726 Q131.066 521.573 127.917 521.573 M137.2 506.92 L137.2 511.179 Q135.441 510.346 133.635 509.906 Q131.853 509.466 130.093 509.466 Q125.464 509.466 123.01 512.591 Q120.58 515.716 120.232 522.036 Q121.598 520.022 123.658 518.957 Q125.718 517.869 128.195 517.869 Q133.404 517.869 136.413 521.04 Q139.445 524.189 139.445 529.628 Q139.445 534.952 136.297 538.17 Q133.149 541.387 127.917 541.387 Q121.922 541.387 118.751 536.804 Q115.58 532.198 115.58 523.471 Q115.58 515.277 119.468 510.415 Q123.357 505.531 129.908 505.531 Q131.667 505.531 133.45 505.878 Q135.255 506.226 137.2 506.92 Z" fill="#000000" fill-rule="nonzero" fill-opacity="1"></path><path clip-path="url(#clip440)" d="M127.593 179.983 Q124.26 179.983 122.339 181.766 Q120.441 183.548 120.441 186.673 Q120.441 189.798 122.339 191.581 Q124.26 193.363 127.593 193.363 Q130.927 193.363 132.848 191.581 Q134.769 189.775 134.769 186.673 Q134.769 183.548 132.848 181.766 Q130.95 179.983 127.593 179.983 M122.918 177.993 Q119.908 177.252 118.218 175.192 Q116.552 173.132 116.552 170.169 Q116.552 166.025 119.492 163.618 Q122.455 161.21 127.593 161.21 Q132.755 161.21 135.695 163.618 Q138.635 166.025 138.635 170.169 Q138.635 173.132 136.945 175.192 Q135.279 177.252 132.292 177.993 Q135.672 178.78 137.547 181.071 Q139.445 183.363 139.445 186.673 Q139.445 191.696 136.367 194.381 Q133.311 197.067 127.593 197.067 Q121.876 197.067 118.797 194.381 Q115.742 191.696 115.742 186.673 Q115.742 183.363 117.64 181.071 Q119.538 178.78 122.918 177.993 M121.205 170.608 Q121.205 173.294 122.871 174.798 Q124.561 176.303 127.593 176.303 Q130.603 176.303 132.292 174.798 Q134.005 173.294 134.005 170.608 Q134.005 167.923 132.292 166.419 Q130.603 164.914 127.593 164.914 Q124.561 164.914 122.871 166.419 Q121.205 167.923 121.205 170.608 Z" fill="#000000" fill-rule="nonzero" fill-opacity="1"></path><path clip-path="url(#clip440)" d="M18.0438 897.347 L24.314 897.347 Q22.5634 901.007 21.704 904.253 Q20.8447 907.5 20.8447 910.524 Q20.8447 915.775 22.8817 918.64 Q24.9187 921.473 28.6745 921.473 Q31.8255 921.473 33.4488 919.595 Q35.0402 917.685 36.0269 912.401 L36.8226 908.518 Q38.1912 901.325 41.6605 897.919 Q45.098 894.482 50.8908 894.482 Q57.7976 894.482 61.3624 899.129 Q64.9272 903.744 64.9272 912.688 Q64.9272 916.062 64.1633 919.881 Q63.3994 923.669 61.9035 927.743 L55.2831 927.743 Q57.4793 923.828 58.5933 920.072 Q59.7073 916.316 59.7073 912.688 Q59.7073 907.182 57.543 904.19 Q55.3786 901.198 51.3682 901.198 Q47.8671 901.198 45.8937 903.362 Q43.9204 905.495 42.9337 910.396 L42.1698 914.311 Q40.7375 921.504 37.682 924.719 Q34.6264 927.934 29.1837 927.934 Q22.8817 927.934 19.2532 923.51 Q15.6248 919.054 15.6248 911.256 Q15.6248 907.914 16.2295 904.444 Q16.8343 900.975 18.0438 897.347 Z" fill="#000000" fill-rule="nonzero" fill-opacity="1"></path><path clip-path="url(#clip440)" d="M58.657 879.045 L77.5631 879.045 L77.5631 884.933 L28.3562 884.933 L28.3562 879.045 L33.7671 879.045 Q30.5842 877.199 29.0564 874.398 Q27.4968 871.565 27.4968 867.65 Q27.4968 861.157 32.6531 857.115 Q37.8093 853.041 46.212 853.041 Q54.6147 853.041 59.771 857.115 Q64.9272 861.157 64.9272 867.65 Q64.9272 871.565 63.3994 874.398 Q61.8398 877.199 58.657 879.045 M46.212 859.12 Q39.7508 859.12 36.0905 861.794 Q32.3984 864.436 32.3984 869.083 Q32.3984 873.73 36.0905 876.403 Q39.7508 879.045 46.212 879.045 Q52.6732 879.045 56.3653 876.403 Q60.0256 873.73 60.0256 869.083 Q60.0256 864.436 56.3653 861.794 Q52.6732 859.12 46.212 859.12 Z" fill="#000000" fill-rule="nonzero" fill-opacity="1"></path><path clip-path="url(#clip440)" d="M44.7161 812.842 L47.5806 812.842 L47.5806 839.769 Q53.6281 839.387 56.8109 836.14 Q59.9619 832.862 59.9619 827.037 Q59.9619 823.663 59.1344 820.512 Q58.3069 817.33 56.6518 814.21 L62.1899 814.21 Q63.5267 817.361 64.227 820.672 Q64.9272 823.982 64.9272 827.387 Q64.9272 835.917 59.9619 840.915 Q54.9967 845.88 46.5303 845.88 Q37.7774 845.88 32.6531 841.169 Q27.4968 836.427 27.4968 828.406 Q27.4968 821.213 32.1438 817.043 Q36.7589 812.842 44.7161 812.842 M42.9973 818.698 Q38.1912 818.762 35.3266 821.404 Q32.4621 824.014 32.4621 828.342 Q32.4621 833.244 35.2312 836.204 Q38.0002 839.132 43.0292 839.578 L42.9973 818.698 Z" fill="#000000" fill-rule="nonzero" fill-opacity="1"></path><path clip-path="url(#clip440)" d="M44.7161 772.738 L47.5806 772.738 L47.5806 799.665 Q53.6281 799.283 56.8109 796.036 Q59.9619 792.758 59.9619 786.933 Q59.9619 783.56 59.1344 780.408 Q58.3069 777.226 56.6518 774.106 L62.1899 774.106 Q63.5267 777.257 64.227 780.568 Q64.9272 783.878 64.9272 787.283 Q64.9272 795.813 59.9619 800.811 Q54.9967 805.776 46.5303 805.776 Q37.7774 805.776 32.6531 801.065 Q27.4968 796.323 27.4968 788.302 Q27.4968 781.109 32.1438 776.939 Q36.7589 772.738 44.7161 772.738 M42.9973 778.594 Q38.1912 778.658 35.3266 781.3 Q32.4621 783.91 32.4621 788.238 Q32.4621 793.14 35.2312 796.1 Q38.0002 799.028 43.0292 799.474 L42.9973 778.594 Z" fill="#000000" fill-rule="nonzero" fill-opacity="1"></path><path clip-path="url(#clip440)" d="M33.7671 739.668 L14.479 739.668 L14.479 733.812 L64.0042 733.812 L64.0042 739.668 L58.657 739.668 Q61.8398 741.514 63.3994 744.347 Q64.9272 747.148 64.9272 751.094 Q64.9272 757.556 59.771 761.63 Q54.6147 765.672 46.212 765.672 Q37.8093 765.672 32.6531 761.63 Q27.4968 757.556 27.4968 751.094 Q27.4968 747.148 29.0564 744.347 Q30.5842 741.514 33.7671 739.668 M46.212 759.624 Q52.6732 759.624 56.3653 756.983 Q60.0256 754.309 60.0256 749.662 Q60.0256 745.015 56.3653 742.342 Q52.6732 739.668 46.212 739.668 Q39.7508 739.668 36.0905 742.342 Q32.3984 745.015 32.3984 749.662 Q32.3984 754.309 36.0905 756.983 Q39.7508 759.624 46.212 759.624 Z" fill="#000000" fill-rule="nonzero" fill-opacity="1"></path><path clip-path="url(#clip440)" d="M14.5426 686.96 Q21.8632 691.225 29.0246 693.294 Q36.186 695.363 43.5384 695.363 Q50.8908 695.363 58.1159 693.294 Q65.3091 691.193 72.5979 686.96 L72.5979 692.052 Q65.1182 696.827 57.8931 699.214 Q50.668 701.569 43.5384 701.569 Q36.4406 701.569 29.2474 699.214 Q22.0542 696.859 14.5426 692.052 L14.5426 686.96 Z" fill="#000000" fill-rule="nonzero" fill-opacity="1"></path><path clip-path="url(#clip440)" d="M35.1993 647.843 Q31.2526 645.646 29.3747 642.591 Q27.4968 639.535 27.4968 635.398 Q27.4968 629.828 31.4117 626.804 Q35.2948 623.78 42.4881 623.78 L64.0042 623.78 L64.0042 629.669 L42.679 629.669 Q37.5546 629.669 35.072 631.483 Q32.5894 633.297 32.5894 637.021 Q32.5894 641.572 35.6131 644.214 Q38.6368 646.856 43.8567 646.856 L64.0042 646.856 L64.0042 652.744 L42.679 652.744 Q37.5228 652.744 35.072 654.558 Q32.5894 656.373 32.5894 660.16 Q32.5894 664.648 35.6449 667.29 Q38.6686 669.932 43.8567 669.932 L64.0042 669.932 L64.0042 675.82 L28.3562 675.82 L28.3562 669.932 L33.8944 669.932 Q30.616 667.926 29.0564 665.126 Q27.4968 662.325 27.4968 658.473 Q27.4968 654.59 29.4702 651.885 Q31.4436 649.148 35.1993 647.843 Z" fill="#000000" fill-rule="nonzero" fill-opacity="1"></path><path clip-path="url(#clip440)" d="M16.4842 601.691 L16.4842 596.28 L70.0516 612.831 L70.0516 618.242 L16.4842 601.691 Z" fill="#000000" fill-rule="nonzero" fill-opacity="1"></path><path clip-path="url(#clip440)" d="M29.4065 567.412 L34.9447 567.412 Q33.6716 569.895 33.035 572.568 Q32.3984 575.242 32.3984 578.106 Q32.3984 582.467 33.7352 584.663 Q35.072 586.827 37.7456 586.827 Q39.7826 586.827 40.9603 585.268 Q42.1061 583.708 43.1565 578.998 L43.6021 576.992 Q44.9389 570.754 47.3897 568.144 Q49.8086 565.502 54.1691 565.502 Q59.1344 565.502 62.0308 569.449 Q64.9272 573.364 64.9272 580.239 Q64.9272 583.103 64.3543 586.223 Q63.8132 589.31 62.6992 592.747 L56.6518 592.747 Q58.3387 589.501 59.198 586.35 Q60.0256 583.199 60.0256 580.112 Q60.0256 575.974 58.6251 573.746 Q57.1929 571.518 54.6147 571.518 Q52.2276 571.518 50.9545 573.141 Q49.6813 574.733 48.5037 580.175 L48.0262 582.212 Q46.8804 587.655 44.5251 590.074 Q42.138 592.493 38.0002 592.493 Q32.9713 592.493 30.2341 588.928 Q27.4968 585.363 27.4968 578.807 Q27.4968 575.56 27.9743 572.695 Q28.4517 569.831 29.4065 567.412 Z" fill="#000000" fill-rule="nonzero" fill-opacity="1"></path><path clip-path="url(#clip440)" d="M14.5426 557.099 L14.5426 552.007 Q22.0542 547.233 29.2474 544.877 Q36.4406 542.49 43.5384 542.49 Q50.668 542.49 57.8931 544.877 Q65.1182 547.233 72.5979 552.007 L72.5979 557.099 Q65.3091 552.866 58.1159 550.797 Q50.8908 548.697 43.5384 548.697 Q36.186 548.697 29.0246 550.797 Q21.8632 552.866 14.5426 557.099 Z" fill="#000000" fill-rule="nonzero" fill-opacity="1"></path><polyline clip-path="url(#clip442)" style="stroke:#008000; stroke-linecap:round; stroke-linejoin:round; stroke-width:8; stroke-opacity:1; fill:none" points="237.067,1384.24 237.068,1384.07 "></polyline>
<polyline clip-path="url(#clip442)" style="stroke:#008000; stroke-linecap:round; stroke-linejoin:round; stroke-width:8; stroke-opacity:1; fill:none" points="237.068,1384.07 237.072,1382.39 "></polyline>
<polyline clip-path="url(#clip442)" style="stroke:#008000; stroke-linecap:round; stroke-linejoin:round; stroke-width:8; stroke-opacity:1; fill:none" points="237.072,1382.39 237.093,1374.02 "></polyline>
<polyline clip-path="url(#clip442)" style="stroke:#008000; stroke-linecap:round; stroke-linejoin:round; stroke-width:8; stroke-opacity:1; fill:none" points="237.093,1374.02 237.139,1358.53 "></polyline>
<polyline clip-path="url(#clip442)" style="stroke:#008000; stroke-linecap:round; stroke-linejoin:round; stroke-width:8; stroke-opacity:1; fill:none" points="237.139,1358.53 237.209,1338.6 "></polyline>
<polyline clip-path="url(#clip442)" style="stroke:#008000; stroke-linecap:round; stroke-linejoin:round; stroke-width:8; stroke-opacity:1; fill:none" points="237.209,1338.6 237.309,1315.34 "></polyline>
<polyline clip-path="url(#clip442)" style="stroke:#008000; stroke-linecap:round; stroke-linejoin:round; stroke-width:8; stroke-opacity:1; fill:none" points="237.309,1315.34 237.455,1287.88 "></polyline>
<polyline clip-path="url(#clip442)" style="stroke:#008000; stroke-linecap:round; stroke-linejoin:round; stroke-width:8; stroke-opacity:1; fill:none" points="237.455,1287.88 237.663,1256.48 "></polyline>
<polyline clip-path="url(#clip442)" style="stroke:#008000; stroke-linecap:round; stroke-linejoin:round; stroke-width:8; stroke-opacity:1; fill:none" points="237.663,1256.48 237.961,1220.51 "></polyline>
<polyline clip-path="url(#clip442)" style="stroke:#008000; stroke-linecap:round; stroke-linejoin:round; stroke-width:8; stroke-opacity:1; fill:none" points="237.961,1220.51 238.387,1179.77 "></polyline>
<polyline clip-path="url(#clip442)" style="stroke:#008000; stroke-linecap:round; stroke-linejoin:round; stroke-width:8; stroke-opacity:1; fill:none" points="238.387,1179.77 238.995,1133.64 "></polyline>
<polyline clip-path="url(#clip442)" style="stroke:#008000; stroke-linecap:round; stroke-linejoin:round; stroke-width:8; stroke-opacity:1; fill:none" points="238.995,1133.64 239.863,1081.62 "></polyline>
<polyline clip-path="url(#clip442)" style="stroke:#008000; stroke-linecap:round; stroke-linejoin:round; stroke-width:8; stroke-opacity:1; fill:none" points="239.863,1081.62 241.1,1023.01 "></polyline>
<polyline clip-path="url(#clip442)" style="stroke:#008000; stroke-linecap:round; stroke-linejoin:round; stroke-width:8; stroke-opacity:1; fill:none" points="241.1,1023.01 242.863,957.076 "></polyline>
<polyline clip-path="url(#clip442)" style="stroke:#008000; stroke-linecap:round; stroke-linejoin:round; stroke-width:8; stroke-opacity:1; fill:none" points="242.863,957.076 245.378,882.951 "></polyline>
<polyline clip-path="url(#clip442)" style="stroke:#008000; stroke-linecap:round; stroke-linejoin:round; stroke-width:8; stroke-opacity:1; fill:none" points="245.378,882.951 248.963,799.691 "></polyline>
<polyline clip-path="url(#clip442)" style="stroke:#008000; stroke-linecap:round; stroke-linejoin:round; stroke-width:8; stroke-opacity:1; fill:none" points="248.963,799.691 254.073,706.221 "></polyline>
<polyline clip-path="url(#clip442)" style="stroke:#008000; stroke-linecap:round; stroke-linejoin:round; stroke-width:8; stroke-opacity:1; fill:none" points="254.073,706.221 261.357,601.362 "></polyline>
<polyline clip-path="url(#clip442)" style="stroke:#008000; stroke-linecap:round; stroke-linejoin:round; stroke-width:8; stroke-opacity:1; fill:none" points="261.357,601.362 271.741,483.805 "></polyline>
<polyline clip-path="url(#clip442)" style="stroke:#008000; stroke-linecap:round; stroke-linejoin:round; stroke-width:8; stroke-opacity:1; fill:none" points="271.741,483.805 286.543,352.115 "></polyline>
<polyline clip-path="url(#clip442)" style="stroke:#008000; stroke-linecap:round; stroke-linejoin:round; stroke-width:8; stroke-opacity:1; fill:none" points="286.543,352.115 307.645,204.729 "></polyline>
<polyline clip-path="url(#clip442)" style="stroke:#008000; stroke-linecap:round; stroke-linejoin:round; stroke-width:8; stroke-opacity:1; fill:none" points="307.645,204.729 328.544,86.1857 "></polyline>
<polyline clip-path="url(#clip442)" style="stroke:#0000ff; stroke-linecap:round; stroke-linejoin:round; stroke-width:8; stroke-opacity:1; fill:none" points="328.544,86.1857 328.544,86.1857 "></polyline>
<polyline clip-path="url(#clip442)" style="stroke:#0000ff; stroke-linecap:round; stroke-linejoin:round; stroke-width:8; stroke-opacity:1; fill:none" points="328.544,86.1857 1004.08,86.1857 "></polyline>
<polyline clip-path="url(#clip442)" style="stroke:#808080; stroke-linecap:round; stroke-linejoin:round; stroke-width:8; stroke-opacity:1; fill:none" points="1004.08,86.1857 1004.22,86.262 "></polyline>
<polyline clip-path="url(#clip442)" style="stroke:#808080; stroke-linecap:round; stroke-linejoin:round; stroke-width:8; stroke-opacity:1; fill:none" points="1004.22,86.262 1005.62,87.0253 "></polyline>
<polyline clip-path="url(#clip442)" style="stroke:#808080; stroke-linecap:round; stroke-linejoin:round; stroke-width:8; stroke-opacity:1; fill:none" points="1005.62,87.0253 1019.64,94.6759 "></polyline>
<polyline clip-path="url(#clip442)" style="stroke:#808080; stroke-linecap:round; stroke-linejoin:round; stroke-width:8; stroke-opacity:1; fill:none" points="1019.64,94.6759 1159.81,173.053 "></polyline>
<polyline clip-path="url(#clip442)" style="stroke:#808080; stroke-linecap:round; stroke-linejoin:round; stroke-width:8; stroke-opacity:1; fill:none" points="1159.81,173.053 1476.62,365.607 "></polyline>
<polyline clip-path="url(#clip442)" style="stroke:#808080; stroke-linecap:round; stroke-linejoin:round; stroke-width:8; stroke-opacity:1; fill:none" points="1476.62,365.607 1879.74,659.938 "></polyline>
<polyline clip-path="url(#clip442)" style="stroke:#808080; stroke-linecap:round; stroke-linejoin:round; stroke-width:8; stroke-opacity:1; fill:none" points="1879.74,659.938 2288.94,1110.98 "></polyline>
<polyline clip-path="url(#clip442)" style="stroke:#ff0000; stroke-linecap:round; stroke-linejoin:round; stroke-width:8; stroke-opacity:1; fill:none" points="2288.94,1110.98 2288.94,1110.98 "></polyline>
<polyline clip-path="url(#clip442)" style="stroke:#ff0000; stroke-linecap:round; stroke-linejoin:round; stroke-width:8; stroke-opacity:1; fill:none" points="2288.94,1110.98 2288.94,1110.98 "></polyline>
<polyline clip-path="url(#clip442)" style="stroke:#ff0000; stroke-linecap:round; stroke-linejoin:round; stroke-width:8; stroke-opacity:1; fill:none" points="2288.94,1110.98 2289.02,1116.02 "></polyline>
<polyline clip-path="url(#clip442)" style="stroke:#ff0000; stroke-linecap:round; stroke-linejoin:round; stroke-width:8; stroke-opacity:1; fill:none" points="2289.02,1116.02 2289.55,1153.59 "></polyline>
<polyline clip-path="url(#clip442)" style="stroke:#ff0000; stroke-linecap:round; stroke-linejoin:round; stroke-width:8; stroke-opacity:1; fill:none" points="2289.55,1153.59 2290.41,1237.27 "></polyline>
<polyline clip-path="url(#clip442)" style="stroke:#ff0000; stroke-linecap:round; stroke-linejoin:round; stroke-width:8; stroke-opacity:1; fill:none" points="2290.41,1237.27 2291.03,1348.19 "></polyline>
<polyline clip-path="url(#clip442)" style="stroke:#ff0000; stroke-linecap:round; stroke-linejoin:round; stroke-width:8; stroke-opacity:1; fill:none" points="2291.03,1348.19 2291.13,1384.24 "></polyline>
<polyline clip-path="url(#clip442)" style="stroke:#ff0000; stroke-linecap:round; stroke-linejoin:round; stroke-width:8; stroke-opacity:1; fill:none" points="2291.13,1384.24 2291.13,1384.24 "></polyline>
</svg>